<svg class="rich-terminal" viewBox="0 0 1482 782.0" xmlns="http://www.w3.org/2000/svg">
    <!-- Generated with Rich https://www.textualize.io -->
    <style>

    @font-face {
        font-family: "Fira Code";
        src: local("FiraCode-Regular"),
                url("https://cdnjs.cloudflare.com/ajax/libs/firacode/6.2.0/woff2/FiraCode-Regular.woff2") format("woff2"),
                url("https://cdnjs.cloudflare.com/ajax/libs/firacode/6.2.0/woff/FiraCode-Regular.woff") format("woff");
        font-style: normal;
        font-weight: 400;
    }
    @font-face {
        font-family: "Fira Code";
        src: local("FiraCode-Bold"),
                url("https://cdnjs.cloudflare.com/ajax/libs/firacode/6.2.0/woff2/FiraCode-Bold.woff2") format("woff2"),
                url("https://cdnjs.cloudflare.com/ajax/libs/firacode/6.2.0/woff/FiraCode-Bold.woff") format("woff");
        font-style: bold;
        font-weight: 700;
    }

    .terminal-365288220-matrix {
        font-family: Fira Code, monospace;
        font-size: 20px;
        line-height: 24.4px;
        font-variant-east-asian: full-width;
    }

    .terminal-365288220-title {
        font-size: 18px;
        font-weight: bold;
        font-family: arial;
    }

    .terminal-365288220-r1 { fill: #c5c8c6 }
.terminal-365288220-r2 { fill: #38ff14 }
.terminal-365288220-r3 { fill: #072102;font-weight: bold }
.terminal-365288220-r4 { fill: #39ff14 }
    </style>

    <defs>
    <clipPath id="terminal-365288220-clip-terminal">
      <rect x="0" y="0" width="1463.0" height="731.0" />
    </clipPath>
    <clipPath id="terminal-365288220-line-0">
    <rect x="0" y="1.5" width="1464" height="24.65"/>
            </clipPath>
<clipPath id="terminal-365288220-line-1">
    <rect x="0" y="25.9" width="1464" height="24.65"/>
            </clipPath>
<clipPath id="terminal-365288220-line-2">
    <rect x="0" y="50.3" width="1464" height="24.65"/>
            </clipPath>
<clipPath id="terminal-365288220-line-3">
    <rect x="0" y="74.7" width="1464" height="24.65"/>
            </clipPath>
<clipPath id="terminal-365288220-line-4">
    <rect x="0" y="99.1" width="1464" height="24.65"/>
            </clipPath>
<clipPath id="terminal-365288220-line-5">
    <rect x="0" y="123.5" width="1464" height="24.65"/>
            </clipPath>
<clipPath id="terminal-365288220-line-6">
    <rect x="0" y="147.9" width="1464" height="24.65"/>
            </clipPath>
<clipPath id="terminal-365288220-line-7">
    <rect x="0" y="172.3" width="1464" height="24.65"/>
            </clipPath>
<clipPath id="terminal-365288220-line-8">
    <rect x="0" y="196.7" width="1464" height="24.65"/>
            </clipPath>
<clipPath id="terminal-365288220-line-9">
    <rect x="0" y="221.1" width="1464" height="24.65"/>
            </clipPath>
<clipPath id="terminal-365288220-line-10">
    <rect x="0" y="245.5" width="1464" height="24.65"/>
            </clipPath>
<clipPath id="terminal-365288220-line-11">
    <rect x="0" y="269.9" width="1464" height="24.65"/>
            </clipPath>
<clipPath id="terminal-365288220-line-12">
    <rect x="0" y="294.3" width="1464" height="24.65"/>
            </clipPath>
<clipPath id="terminal-365288220-line-13">
    <rect x="0" y="318.7" width="1464" height="24.65"/>
            </clipPath>
<clipPath id="terminal-365288220-line-14">
    <rect x="0" y="343.1" width="1464" height="24.65"/>
            </clipPath>
<clipPath id="terminal-365288220-line-15">
    <rect x="0" y="367.5" width="1464" height="24.65"/>
            </clipPath>
<clipPath id="terminal-365288220-line-16">
    <rect x="0" y="391.9" width="1464" height="24.65"/>
            </clipPath>
<clipPath id="terminal-365288220-line-17">
    <rect x="0" y="416.3" width="1464" height="24.65"/>
            </clipPath>
<clipPath id="terminal-365288220-line-18">
    <rect x="0" y="440.7" width="1464" height="24.65"/>
            </clipPath>
<clipPath id="terminal-365288220-line-19">
    <rect x="0" y="465.1" width="1464" height="24.65"/>
            </clipPath>
<clipPath id="terminal-365288220-line-20">
    <rect x="0" y="489.5" width="1464" height="24.65"/>
            </clipPath>
<clipPath id="terminal-365288220-line-21">
    <rect x="0" y="513.9" width="1464" height="24.65"/>
            </clipPath>
<clipPath id="terminal-365288220-line-22">
    <rect x="0" y="538.3" width="1464" height="24.65"/>
            </clipPath>
<clipPath id="terminal-365288220-line-23">
    <rect x="0" y="562.7" width="1464" height="24.65"/>
            </clipPath>
<clipPath id="terminal-365288220-line-24">
    <rect x="0" y="587.1" width="1464" height="24.65"/>
            </clipPath>
<clipPath id="terminal-365288220-line-25">
    <rect x="0" y="611.5" width="1464" height="24.65"/>
            </clipPath>
<clipPath id="terminal-365288220-line-26">
    <rect x="0" y="635.9" width="1464" height="24.65"/>
            </clipPath>
<clipPath id="terminal-365288220-line-27">
    <rect x="0" y="660.3" width="1464" height="24.65"/>
            </clipPath>
<clipPath id="terminal-365288220-line-28">
    <rect x="0" y="684.7" width="1464" height="24.65"/>
            </clipPath>
    </defs>

    <rect fill="#292929" stroke="rgba(255,255,255,0.35)" stroke-width="1" x="1" y="1" width="1480" height="780" rx="8"/><text class="terminal-365288220-title" fill="#c5c8c6" text-anchor="middle" x="740" y="27">htop-tycoon&#160;v3.0</text>
            <g transform="translate(26,22)">
            <circle cx="0" cy="0" r="7" fill="#ff5f57"/>
            <circle cx="22" cy="0" r="7" fill="#febc2e"/>
            <circle cx="44" cy="0" r="7" fill="#28c840"/>
            </g>
        
    <g transform="translate(9, 41)" clip-path="url(#terminal-365288220-clip-terminal)">
    <rect fill="#0a0a0a" x="0" y="1.5" width="12.2" height="24.65" shape-rendering="crispEdges"/><rect fill="#0a0a0a" x="12.2" y="1.5" width="12.2" height="24.65" shape-rendering="crispEdges"/><rect fill="#0a0a0a" x="24.4" y="1.5" width="61" height="24.65" shape-rendering="crispEdges"/><rect fill="#0a0a0a" x="85.4" y="1.5" width="12.2" height="24.65" shape-rendering="crispEdges"/><rect fill="#0a0a0a" x="97.6" y="1.5" width="12.2" height="24.65" shape-rendering="crispEdges"/><rect fill="#0a0a0a" x="109.8" y="1.5" width="158.6" height="24.65" shape-rendering="crispEdges"/><rect fill="#0a0a0a" x="268.4" y="1.5" width="12.2" height="24.65" shape-rendering="crispEdges"/><rect fill="#0a0a0a" x="280.6" y="1.5" width="12.2" height="24.65" shape-rendering="crispEdges"/><rect fill="#0a0a0a" x="292.8" y="1.5" width="73.2" height="24.65" shape-rendering="crispEdges"/><rect fill="#0a0a0a" x="366" y="1.5" width="12.2" height="24.65" shape-rendering="crispEdges"/><rect fill="#0a0a0a" x="378.2" y="1.5" width="12.2" height="24.65" shape-rendering="crispEdges"/><rect fill="#0a0a0a" x="390.4" y="1.5" width="122" height="24.65" shape-rendering="crispEdges"/><rect fill="#0a0a0a" x="512.4" y="1.5" width="12.2" height="24.65" shape-rendering="crispEdges"/><rect fill="#0a0a0a" x="524.6" y="1.5" width="927.2" height="24.65" shape-rendering="crispEdges"/><rect fill="#0a0a0a" x="1451.8" y="1.5" width="12.2" height="24.65" shape-rendering="crispEdges"/><rect fill="#0c160a" x="0" y="25.9" width="12.2" height="24.65" shape-rendering="crispEdges"/><rect fill="#0c160a" x="12.2" y="25.9" width="24.4" height="24.65" shape-rendering="crispEdges"/><rect fill="#39ff14" x="36.6" y="25.9" width="122" height="24.65" shape-rendering="crispEdges"/><rect fill="#0c160a" x="158.6" y="25.9" width="1293.2" height="24.65" shape-rendering="crispEdges"/><rect fill="#0c160a" x="1451.8" y="25.9" width="12.2" height="24.65" shape-rendering="crispEdges"/><rect fill="#0c160a" x="0" y="50.3" width="12.2" height="24.65" shape-rendering="crispEdges"/><rect fill="#0c160a" x="12.2" y="50.3" width="48.8" height="24.65" shape-rendering="crispEdges"/><rect fill="#0c160a" x="61" y="50.3" width="24.4" height="24.65" shape-rendering="crispEdges"/><rect fill="#0c160a" x="85.4" y="50.3" width="122" height="24.65" shape-rendering="crispEdges"/><rect fill="#0c160a" x="207.4" y="50.3" width="1244.4" height="24.65" shape-rendering="crispEdges"/><rect fill="#0c160a" x="1451.8" y="50.3" width="12.2" height="24.65" shape-rendering="crispEdges"/><rect fill="#0c160a" x="0" y="74.7" width="12.2" height="24.65" shape-rendering="crispEdges"/><rect fill="#0c160a" x="12.2" y="74.7" width="48.8" height="24.65" shape-rendering="crispEdges"/><rect fill="#0c160a" x="61" y="74.7" width="48.8" height="24.65" shape-rendering="crispEdges"/><rect fill="#0c160a" x="109.8" y="74.7" width="427" height="24.65" shape-rendering="crispEdges"/><rect fill="#0c160a" x="536.8" y="74.7" width="915" height="24.65" shape-rendering="crispEdges"/><rect fill="#0c160a" x="1451.8" y="74.7" width="12.2" height="24.65" shape-rendering="crispEdges"/><rect fill="#0c160a" x="0" y="99.1" width="12.2" height="24.65" shape-rendering="crispEdges"/><rect fill="#0c160a" x="12.2" y="99.1" width="48.8" height="24.65" shape-rendering="crispEdges"/><rect fill="#0c160a" x="61" y="99.1" width="48.8" height="24.65" shape-rendering="crispEdges"/><rect fill="#0c160a" x="109.8" y="99.1" width="451.4" height="24.65" shape-rendering="crispEdges"/><rect fill="#0c160a" x="561.2" y="99.1" width="890.6" height="24.65" shape-rendering="crispEdges"/><rect fill="#0c160a" x="1451.8" y="99.1" width="12.2" height="24.65" shape-rendering="crispEdges"/><rect fill="#0c160a" x="0" y="123.5" width="12.2" height="24.65" shape-rendering="crispEdges"/><rect fill="#0c160a" x="12.2" y="123.5" width="48.8" height="24.65" shape-rendering="crispEdges"/><rect fill="#0c160a" x="61" y="123.5" width="24.4" height="24.65" shape-rendering="crispEdges"/><rect fill="#0c160a" x="85.4" y="123.5" width="122" height="24.65" shape-rendering="crispEdges"/><rect fill="#0c160a" x="207.4" y="123.5" width="1244.4" height="24.65" shape-rendering="crispEdges"/><rect fill="#0c160a" x="1451.8" y="123.5" width="12.2" height="24.65" shape-rendering="crispEdges"/><rect fill="#0c160a" x="0" y="147.9" width="12.2" height="24.65" shape-rendering="crispEdges"/><rect fill="#0c160a" x="12.2" y="147.9" width="48.8" height="24.65" shape-rendering="crispEdges"/><rect fill="#0c160a" x="61" y="147.9" width="48.8" height="24.65" shape-rendering="crispEdges"/><rect fill="#0c160a" x="109.8" y="147.9" width="500.2" height="24.65" shape-rendering="crispEdges"/><rect fill="#0c160a" x="610" y="147.9" width="841.8" height="24.65" shape-rendering="crispEdges"/><rect fill="#0c160a" x="1451.8" y="147.9" width="12.2" height="24.65" shape-rendering="crispEdges"/><rect fill="#0c160a" x="0" y="172.3" width="12.2" height="24.65" shape-rendering="crispEdges"/><rect fill="#0c160a" x="12.2" y="172.3" width="48.8" height="24.65" shape-rendering="crispEdges"/><rect fill="#0c160a" x="61" y="172.3" width="24.4" height="24.65" shape-rendering="crispEdges"/><rect fill="#0c160a" x="85.4" y="172.3" width="146.4" height="24.65" shape-rendering="crispEdges"/><rect fill="#0c160a" x="231.8" y="172.3" width="1220" height="24.65" shape-rendering="crispEdges"/><rect fill="#0c160a" x="1451.8" y="172.3" width="12.2" height="24.65" shape-rendering="crispEdges"/><rect fill="#0c160a" x="0" y="196.7" width="12.2" height="24.65" shape-rendering="crispEdges"/><rect fill="#0c160a" x="12.2" y="196.7" width="48.8" height="24.65" shape-rendering="crispEdges"/><rect fill="#0c160a" x="61" y="196.7" width="48.8" height="24.65" shape-rendering="crispEdges"/><rect fill="#0c160a" x="109.8" y="196.7" width="573.4" height="24.65" shape-rendering="crispEdges"/><rect fill="#0c160a" x="683.2" y="196.7" width="768.6" height="24.65" shape-rendering="crispEdges"/><rect fill="#0c160a" x="1451.8" y="196.7" width="12.2" height="24.65" shape-rendering="crispEdges"/><rect fill="#0c160a" x="0" y="221.1" width="12.2" height="24.65" shape-rendering="crispEdges"/><rect fill="#0c160a" x="12.2" y="221.1" width="48.8" height="24.65" shape-rendering="crispEdges"/><rect fill="#0c160a" x="61" y="221.1" width="24.4" height="24.65" shape-rendering="crispEdges"/><rect fill="#0c160a" x="85.4" y="221.1" width="97.6" height="24.65" shape-rendering="crispEdges"/><rect fill="#0c160a" x="183" y="221.1" width="1268.8" height="24.65" shape-rendering="crispEdges"/><rect fill="#0c160a" x="1451.8" y="221.1" width="12.2" height="24.65" shape-rendering="crispEdges"/><rect fill="#0c160a" x="0" y="245.5" width="12.2" height="24.65" shape-rendering="crispEdges"/><rect fill="#0c160a" x="12.2" y="245.5" width="48.8" height="24.65" shape-rendering="crispEdges"/><rect fill="#0c160a" x="61" y="245.5" width="48.8" height="24.65" shape-rendering="crispEdges"/><rect fill="#0c160a" x="109.8" y="245.5" width="488" height="24.65" shape-rendering="crispEdges"/><rect fill="#0c160a" x="597.8" y="245.5" width="854" height="24.65" shape-rendering="crispEdges"/><rect fill="#0c160a" x="1451.8" y="245.5" width="12.2" height="24.65" shape-rendering="crispEdges"/><rect fill="#0c160a" x="0" y="269.9" width="12.2" height="24.65" shape-rendering="crispEdges"/><rect fill="#0c160a" x="12.2" y="269.9" width="48.8" height="24.65" shape-rendering="crispEdges"/><rect fill="#0c160a" x="61" y="269.9" width="48.8" height="24.65" shape-rendering="crispEdges"/><rect fill="#0c160a" x="109.8" y="269.9" width="427" height="24.65" shape-rendering="crispEdges"/><rect fill="#0c160a" x="536.8" y="269.9" width="915" height="24.65" shape-rendering="crispEdges"/><rect fill="#0c160a" x="1451.8" y="269.9" width="12.2" height="24.65" shape-rendering="crispEdges"/><rect fill="#0c160a" x="0" y="294.3" width="12.2" height="24.65" shape-rendering="crispEdges"/><rect fill="#0c160a" x="12.2" y="294.3" width="1439.6" height="24.65" shape-rendering="crispEdges"/><rect fill="#0c160a" x="1451.8" y="294.3" width="12.2" height="24.65" shape-rendering="crispEdges"/><rect fill="#0c160a" x="0" y="318.7" width="12.2" height="24.65" shape-rendering="crispEdges"/><rect fill="#0c160a" x="12.2" y="318.7" width="1439.6" height="24.65" shape-rendering="crispEdges"/><rect fill="#0c160a" x="1451.8" y="318.7" width="12.2" height="24.65" shape-rendering="crispEdges"/><rect fill="#0c160a" x="0" y="343.1" width="12.2" height="24.65" shape-rendering="crispEdges"/><rect fill="#0c160a" x="12.2" y="343.1" width="1439.6" height="24.65" shape-rendering="crispEdges"/><rect fill="#0c160a" x="1451.8" y="343.1" width="12.2" height="24.65" shape-rendering="crispEdges"/><rect fill="#0c160a" x="0" y="367.5" width="12.2" height="24.65" shape-rendering="crispEdges"/><rect fill="#0c160a" x="12.2" y="367.5" width="1439.6" height="24.65" shape-rendering="crispEdges"/><rect fill="#0c160a" x="1451.8" y="367.5" width="12.2" height="24.65" shape-rendering="crispEdges"/><rect fill="#0c160a" x="0" y="391.9" width="12.2" height="24.65" shape-rendering="crispEdges"/><rect fill="#0c160a" x="12.2" y="391.9" width="1439.6" height="24.65" shape-rendering="crispEdges"/><rect fill="#0c160a" x="1451.8" y="391.9" width="12.2" height="24.65" shape-rendering="crispEdges"/><rect fill="#0c160a" x="0" y="416.3" width="12.2" height="24.65" shape-rendering="crispEdges"/><rect fill="#0c160a" x="12.2" y="416.3" width="1439.6" height="24.65" shape-rendering="crispEdges"/><rect fill="#0c160a" x="1451.8" y="416.3" width="12.2" height="24.65" shape-rendering="crispEdges"/><rect fill="#0c160a" x="0" y="440.7" width="12.2" height="24.65" shape-rendering="crispEdges"/><rect fill="#0c160a" x="12.2" y="440.7" width="1439.6" height="24.65" shape-rendering="crispEdges"/><rect fill="#0c160a" x="1451.8" y="440.7" width="12.2" height="24.65" shape-rendering="crispEdges"/><rect fill="#0c160a" x="0" y="465.1" width="12.2" height="24.65" shape-rendering="crispEdges"/><rect fill="#0c160a" x="12.2" y="465.1" width="1439.6" height="24.65" shape-rendering="crispEdges"/><rect fill="#0c160a" x="1451.8" y="465.1" width="12.2" height="24.65" shape-rendering="crispEdges"/><rect fill="#0c160a" x="0" y="489.5" width="12.2" height="24.65" shape-rendering="crispEdges"/><rect fill="#0c160a" x="12.2" y="489.5" width="1439.6" height="24.65" shape-rendering="crispEdges"/><rect fill="#0c160a" x="1451.8" y="489.5" width="12.2" height="24.65" shape-rendering="crispEdges"/><rect fill="#0c160a" x="0" y="513.9" width="12.2" height="24.65" shape-rendering="crispEdges"/><rect fill="#0c160a" x="12.2" y="513.9" width="1439.6" height="24.65" shape-rendering="crispEdges"/><rect fill="#0c160a" x="1451.8" y="513.9" width="12.2" height="24.65" shape-rendering="crispEdges"/><rect fill="#0c160a" x="0" y="538.3" width="12.2" height="24.65" shape-rendering="crispEdges"/><rect fill="#0c160a" x="12.2" y="538.3" width="1439.6" height="24.65" shape-rendering="crispEdges"/><rect fill="#0c160a" x="1451.8" y="538.3" width="12.2" height="24.65" shape-rendering="crispEdges"/><rect fill="#0a0a0a" x="0" y="562.7" width="12.2" height="24.65" shape-rendering="crispEdges"/><rect fill="#0a0a0a" x="12.2" y="562.7" width="305" height="24.65" shape-rendering="crispEdges"/><rect fill="#0a0a0a" x="317.2" y="562.7" width="1134.6" height="24.65" shape-rendering="crispEdges"/><rect fill="#0a0a0a" x="1451.8" y="562.7" width="12.2" height="24.65" shape-rendering="crispEdges"/><rect fill="#0a0a0a" x="0" y="587.1" width="12.2" height="24.65" shape-rendering="crispEdges"/><rect fill="#0a0a0a" x="12.2" y="587.1" width="317.2" height="24.65" shape-rendering="crispEdges"/><rect fill="#0a0a0a" x="329.4" y="587.1" width="1122.4" height="24.65" shape-rendering="crispEdges"/><rect fill="#0a0a0a" x="1451.8" y="587.1" width="12.2" height="24.65" shape-rendering="crispEdges"/><rect fill="#0a0a0a" x="0" y="611.5" width="12.2" height="24.65" shape-rendering="crispEdges"/><rect fill="#0a0a0a" x="12.2" y="611.5" width="317.2" height="24.65" shape-rendering="crispEdges"/><rect fill="#0a0a0a" x="329.4" y="611.5" width="1122.4" height="24.65" shape-rendering="crispEdges"/><rect fill="#0a0a0a" x="1451.8" y="611.5" width="12.2" height="24.65" shape-rendering="crispEdges"/><rect fill="#0a0a0a" x="0" y="635.9" width="12.2" height="24.65" shape-rendering="crispEdges"/><rect fill="#0a0a0a" x="12.2" y="635.9" width="317.2" height="24.65" shape-rendering="crispEdges"/><rect fill="#0a0a0a" x="329.4" y="635.9" width="1122.4" height="24.65" shape-rendering="crispEdges"/><rect fill="#0a0a0a" x="1451.8" y="635.9" width="12.2" height="24.65" shape-rendering="crispEdges"/><rect fill="#0a0a0a" x="0" y="660.3" width="780.8" height="24.65" shape-rendering="crispEdges"/><rect fill="#0a0a0a" x="780.8" y="660.3" width="683.2" height="24.65" shape-rendering="crispEdges"/><rect fill="#0a0a0a" x="0" y="684.7" width="280.6" height="24.65" shape-rendering="crispEdges"/><rect fill="#0a0a0a" x="280.6" y="684.7" width="1183.4" height="24.65" shape-rendering="crispEdges"/><rect fill="#0a0a0a" x="0" y="709.1" width="12.2" height="24.65" shape-rendering="crispEdges"/><rect fill="#0a0a0a" x="12.2" y="709.1" width="12.2" height="24.65" shape-rendering="crispEdges"/><rect fill="#0a0a0a" x="24.4" y="709.1" width="585.6" height="24.65" shape-rendering="crispEdges"/><rect fill="#0a0a0a" x="610" y="709.1" width="12.2" height="24.65" shape-rendering="crispEdges"/><rect fill="#0a0a0a" x="622.2" y="709.1" width="12.2" height="24.65" shape-rendering="crispEdges"/><rect fill="#0a0a0a" x="634.4" y="709.1" width="305" height="24.65" shape-rendering="crispEdges"/><rect fill="#0a0a0a" x="939.4" y="709.1" width="12.2" height="24.65" shape-rendering="crispEdges"/><rect fill="#0a0a0a" x="951.6" y="709.1" width="12.2" height="24.65" shape-rendering="crispEdges"/><rect fill="#0a0a0a" x="963.8" y="709.1" width="109.8" height="24.65" shape-rendering="crispEdges"/><rect fill="#0a0a0a" x="1073.6" y="709.1" width="12.2" height="24.65" shape-rendering="crispEdges"/><rect fill="#0a0a0a" x="1085.8" y="709.1" width="12.2" height="24.65" shape-rendering="crispEdges"/><rect fill="#0a0a0a" x="1098" y="709.1" width="97.6" height="24.65" shape-rendering="crispEdges"/><rect fill="#0a0a0a" x="1195.6" y="709.1" width="12.2" height="24.65" shape-rendering="crispEdges"/><rect fill="#0a0a0a" x="1207.8" y="709.1" width="244" height="24.65" shape-rendering="crispEdges"/><rect fill="#0a0a0a" x="1451.8" y="709.1" width="12.2" height="24.65" shape-rendering="crispEdges"/>
    <g class="terminal-365288220-matrix">
    <text class="terminal-365288220-r2" x="24.4" y="20" textLength="36.6" clip-path="url(#terminal-365288220-line-0)">1년차</text><text class="terminal-365288220-r2" x="109.8" y="20" textLength="134.2" clip-path="url(#terminal-365288220-line-0)">자금&#160;$100,000</text><text class="terminal-365288220-r2" x="292.8" y="20" textLength="48.8" clip-path="url(#terminal-365288220-line-0)">팬&#160;0명</text><text class="terminal-365288220-r2" x="390.4" y="20" textLength="73.2" clip-path="url(#terminal-365288220-line-0)">전략:&#160;균형</text><text class="terminal-365288220-r1" x="1464" y="20" textLength="12.2" clip-path="url(#terminal-365288220-line-0)">
</text><text class="terminal-365288220-r2" x="12.2" y="44.4" textLength="24.4" clip-path="url(#terminal-365288220-line-1)">▼&#160;</text><text class="terminal-365288220-r3" x="36.6" y="44.4" textLength="85.4" clip-path="url(#terminal-365288220-line-1)">회사&#160;(6명)</text><text class="terminal-365288220-r1" x="1464" y="44.4" textLength="12.2" clip-path="url(#terminal-365288220-line-1)">
</text><text class="terminal-365288220-r4" x="12.2" y="68.8" textLength="48.8" clip-path="url(#terminal-365288220-line-2)">├──&#160;</text><text class="terminal-365288220-r2" x="61" y="68.8" textLength="24.4" clip-path="url(#terminal-365288220-line-2)">▼&#160;</text><text class="terminal-365288220-r2" x="85.4" y="68.8" textLength="85.4" clip-path="url(#terminal-365288220-line-2)">개발&#160;(2명)</text><text class="terminal-365288220-r1" x="1464" y="68.8" textLength="12.2" clip-path="url(#terminal-365288220-line-2)">
</text><text class="terminal-365288220-r4" x="12.2" y="93.2" textLength="48.8" clip-path="url(#terminal-365288220-line-3)">│&#160;&#160;&#160;</text><text class="terminal-365288220-r4" x="61" y="93.2" textLength="48.8" clip-path="url(#terminal-365288220-line-3)">├──&#160;</text><text class="terminal-365288220-r2" x="109.8" y="93.2" textLength="353.8" clip-path="url(#terminal-365288220-line-3)">Ada&#160;|&#160;리드&#160;5&#160;|&#160;만족도:85%&#160;|&#160;$880/월</text><text class="terminal-365288220-r1" x="1464" y="93.2" textLength="12.2" clip-path="url(#terminal-365288220-line-3)">
</text><text class="terminal-365288220-r4" x="12.2" y="117.6" textLength="48.8" clip-path="url(#terminal-365288220-line-4)">│&#160;&#160;&#160;</text><text class="terminal-365288220-r4" x="61" y="117.6" textLength="48.8" clip-path="url(#terminal-365288220-line-4)">└──&#160;</text><text class="terminal-365288220-r2" x="109.8" y="117.6" textLength="366" clip-path="url(#terminal-365288220-line-4)">Bob&#160;|&#160;주니어&#160;2&#160;|&#160;만족도:70%&#160;|&#160;$230/월</text><text class="terminal-365288220-r1" x="1464" y="117.6" textLength="12.2" clip-path="url(#terminal-365288220-line-4)">
</text><text class="terminal-365288220-r4" x="12.2" y="142" textLength="48.8" clip-path="url(#terminal-365288220-line-5)">├──&#160;</text><text class="terminal-365288220-r2" x="61" y="142" textLength="24.4" clip-path="url(#terminal-365288220-line-5)">▼&#160;</text><text class="terminal-365288220-r2" x="85.4" y="142" textLength="85.4" clip-path="url(#terminal-365288220-line-5)">아트&#160;(1명)</text><text class="terminal-365288220-r1" x="1464" y="142" textLength="12.2" clip-path="url(#terminal-365288220-line-5)">
</text><text class="terminal-365288220-r4" x="12.2" y="166.4" textLength="48.8" clip-path="url(#terminal-365288220-line-6)">│&#160;&#160;&#160;</text><text class="terminal-365288220-r4" x="61" y="166.4" textLength="48.8" clip-path="url(#terminal-365288220-line-6)">└──&#160;</text><text class="terminal-365288220-r2" x="109.8" y="166.4" textLength="402.6" clip-path="url(#terminal-365288220-line-6)">Carol&#160;|&#160;디자이너&#160;4&#160;|&#160;만족도:75%&#160;|&#160;$435/월</text><text class="terminal-365288220-r1" x="1464" y="166.4" textLength="12.2" clip-path="url(#terminal-365288220-line-6)">
</text><text class="terminal-365288220-r4" x="12.2" y="190.8" textLength="48.8" clip-path="url(#terminal-365288220-line-7)">├──&#160;</text><text class="terminal-365288220-r2" x="61" y="190.8" textLength="24.4" clip-path="url(#terminal-365288220-line-7)">▼&#160;</text><text class="terminal-365288220-r2" x="85.4" y="190.8" textLength="97.6" clip-path="url(#terminal-365288220-line-7)">사운드&#160;(1명)</text><text class="terminal-365288220-r1" x="1464" y="190.8" textLength="12.2" clip-path="url(#terminal-365288220-line-7)">
</text><text class="terminal-365288220-r4" x="12.2" y="215.2" textLength="48.8" clip-path="url(#terminal-365288220-line-8)">│&#160;&#160;&#160;</text><text class="terminal-365288220-r4" x="61" y="215.2" textLength="48.8" clip-path="url(#terminal-365288220-line-8)">└──&#160;</text><text class="terminal-365288220-r2" x="109.8" y="215.2" textLength="439.2" clip-path="url(#terminal-365288220-line-8)">Dave&#160;|&#160;사운드&#160;엔지니어&#160;3&#160;|&#160;만족도:80%&#160;|&#160;$351/월</text><text class="terminal-365288220-r1" x="1464" y="215.2" textLength="12.2" clip-path="url(#terminal-365288220-line-8)">
</text><text class="terminal-365288220-r4" x="12.2" y="239.6" textLength="48.8" clip-path="url(#terminal-365288220-line-9)">└──&#160;</text><text class="terminal-365288220-r2" x="61" y="239.6" textLength="24.4" clip-path="url(#terminal-365288220-line-9)">▼&#160;</text><text class="terminal-365288220-r2" x="85.4" y="239.6" textLength="85.4" clip-path="url(#terminal-365288220-line-9)">QA&#160;(2명)</text><text class="terminal-365288220-r1" x="1464" y="239.6" textLength="12.2" clip-path="url(#terminal-365288220-line-9)">
</text><text class="terminal-365288220-r4" x="61" y="264" textLength="48.8" clip-path="url(#terminal-365288220-line-10)">├──&#160;</text><text class="terminal-365288220-r2" x="109.8" y="264" textLength="414.8" clip-path="url(#terminal-365288220-line-10)">Eve&#160;|&#160;QA&#160;2&#160;|&#160;만족도:15%&#160;|&#160;$207/월&#160;[좀비]</text><text class="terminal-365288220-r1" x="1464" y="264" textLength="12.2" clip-path="url(#terminal-365288220-line-10)">
</text><text class="terminal-365288220-r4" x="61" y="288.4" textLength="48.8" clip-path="url(#terminal-365288220-line-11)">└──&#160;</text><text class="terminal-365288220-r2" x="109.8" y="288.4" textLength="378.2" clip-path="url(#terminal-365288220-line-11)">Frank&#160;|&#160;QA&#160;4&#160;|&#160;만족도:70%&#160;|&#160;$261/월</text><text class="terminal-365288220-r1" x="1464" y="288.4" textLength="12.2" clip-path="url(#terminal-365288220-line-11)">
</text><text class="terminal-365288220-r1" x="1464" y="312.8" textLength="12.2" clip-path="url(#terminal-365288220-line-12)">
</text><text class="terminal-365288220-r1" x="1464" y="337.2" textLength="12.2" clip-path="url(#terminal-365288220-line-13)">
</text><text class="terminal-365288220-r1" x="1464" y="361.6" textLength="12.2" clip-path="url(#terminal-365288220-line-14)">
</text><text class="terminal-365288220-r1" x="1464" y="386" textLength="12.2" clip-path="url(#terminal-365288220-line-15)">
</text><text class="terminal-365288220-r1" x="1464" y="410.4" textLength="12.2" clip-path="url(#terminal-365288220-line-16)">
</text><text class="terminal-365288220-r1" x="1464" y="434.8" textLength="12.2" clip-path="url(#terminal-365288220-line-17)">
</text><text class="terminal-365288220-r1" x="1464" y="459.2" textLength="12.2" clip-path="url(#terminal-365288220-line-18)">
</text><text class="terminal-365288220-r1" x="1464" y="483.6" textLength="12.2" clip-path="url(#terminal-365288220-line-19)">
</text><text class="terminal-365288220-r1" x="1464" y="508" textLength="12.2" clip-path="url(#terminal-365288220-line-20)">
</text><text class="terminal-365288220-r1" x="1464" y="532.4" textLength="12.2" clip-path="url(#terminal-365288220-line-21)">
</text><text class="terminal-365288220-r1" x="1464" y="556.8" textLength="12.2" clip-path="url(#terminal-365288220-line-22)">
</text><text class="terminal-365288220-r2" x="12.2" y="581.2" textLength="280.6" clip-path="url(#terminal-365288220-line-23)">재미&#160;&#160;&#160;&#160;&#160;&#160;&#160;██████░░░░&#160;&#160;60</text><text class="terminal-365288220-r1" x="1464" y="581.2" textLength="12.2" clip-path="url(#terminal-365288220-line-23)">
</text><text class="terminal-365288220-r2" x="12.2" y="605.6" textLength="280.6" clip-path="url(#terminal-365288220-line-24)">그래픽&#160;&#160;&#160;&#160;&#160;&#160;████░░░░░░&#160;&#160;40</text><text class="terminal-365288220-r1" x="1464" y="605.6" textLength="12.2" clip-path="url(#terminal-365288220-line-24)">
</text><text class="terminal-365288220-r2" x="12.2" y="630" textLength="280.6" clip-path="url(#terminal-365288220-line-25)">사운드&#160;&#160;&#160;&#160;&#160;&#160;███░░░░░░░&#160;&#160;30</text><text class="terminal-365288220-r1" x="1464" y="630" textLength="12.2" clip-path="url(#terminal-365288220-line-25)">
</text><text class="terminal-365288220-r2" x="12.2" y="654.4" textLength="280.6" clip-path="url(#terminal-365288220-line-26)">독창성&#160;&#160;&#160;&#160;&#160;&#160;█████░░░░░&#160;&#160;50</text><text class="terminal-365288220-r1" x="1464" y="654.4" textLength="12.2" clip-path="url(#terminal-365288220-line-26)">
</text><text class="terminal-365288220-r2" x="0" y="678.8" textLength="463.6" clip-path="url(#terminal-365288220-line-27)">이벤트&#160;로그&#160;(아직&#160;이벤트&#160;없음&#160;—&#160;전략이&#160;실행될&#160;때까지&#160;기다리세요)</text><text class="terminal-365288220-r1" x="1464" y="678.8" textLength="12.2" clip-path="url(#terminal-365288220-line-27)">
</text><text class="terminal-365288220-r2" x="0" y="703.2" textLength="170.8" clip-path="url(#terminal-365288220-line-28)">레거시&#160;(아직&#160;엔딩&#160;없음)</text><text class="terminal-365288220-r1" x="1464" y="703.2" textLength="12.2" clip-path="url(#terminal-365288220-line-28)">
</text><text class="terminal-365288220-r2" x="24.4" y="727.6" textLength="414.8" clip-path="url(#terminal-365288220-line-29)">F1도움&#160;F2저장&#160;F3검색&#160;F5트리&#160;F7승진&#160;F8로드&#160;F9해고</text><text class="terminal-365288220-r2" x="634.4" y="727.6" textLength="195.2" clip-path="url(#terminal-365288220-line-29)">H고용&#160;n새게임&#160;s전략&#160;d자동</text><text class="terminal-365288220-r2" x="963.8" y="727.6" textLength="61" clip-path="url(#terminal-365288220-line-29)">속도&#160;정지</text><text class="terminal-365288220-r2" x="1098" y="727.6" textLength="73.2" clip-path="url(#terminal-365288220-line-29)">자동&#160;OFF</text>
    </g>
    </g>
</svg>
