<svg class="rich-terminal" viewBox="0 0 1726 1270.0" xmlns="http://www.w3.org/2000/svg">
    <!-- Generated with Rich https://www.textualize.io -->
    <style>

    @font-face {
        font-family: "Fira Code";
        src: local("FiraCode-Regular"),
                url("https://cdnjs.cloudflare.com/ajax/libs/firacode/6.2.0/woff2/FiraCode-Regular.woff2") format("woff2"),
                url("https://cdnjs.cloudflare.com/ajax/libs/firacode/6.2.0/woff/FiraCode-Regular.woff") format("woff");
        font-style: normal;
        font-weight: 400;
    }
    @font-face {
        font-family: "Fira Code";
        src: local("FiraCode-Bold"),
                url("https://cdnjs.cloudflare.com/ajax/libs/firacode/6.2.0/woff2/FiraCode-Bold.woff2") format("woff2"),
                url("https://cdnjs.cloudflare.com/ajax/libs/firacode/6.2.0/woff/FiraCode-Bold.woff") format("woff");
        font-style: bold;
        font-weight: 700;
    }

    .terminal-1059733269-matrix {
        font-family: Fira Code, monospace;
        font-size: 20px;
        line-height: 24.4px;
        font-variant-east-asian: full-width;
    }

    .terminal-1059733269-title {
        font-size: 18px;
        font-weight: bold;
        font-family: arial;
    }

    .terminal-1059733269-r1 { fill: #c5c8c6 }
.terminal-1059733269-r2 { fill: #38ff14 }
.terminal-1059733269-r3 { fill: #3e3e3e }
    </style>

    <defs>
    <clipPath id="terminal-1059733269-clip-terminal">
      <rect x="0" y="0" width="1707.0" height="1219.0" />
    </clipPath>
    <clipPath id="terminal-1059733269-line-0">
    <rect x="0" y="1.5" width="1708" height="24.65"/>
            </clipPath>
<clipPath id="terminal-1059733269-line-1">
    <rect x="0" y="25.9" width="1708" height="24.65"/>
            </clipPath>
<clipPath id="terminal-1059733269-line-2">
    <rect x="0" y="50.3" width="1708" height="24.65"/>
            </clipPath>
<clipPath id="terminal-1059733269-line-3">
    <rect x="0" y="74.7" width="1708" height="24.65"/>
            </clipPath>
<clipPath id="terminal-1059733269-line-4">
    <rect x="0" y="99.1" width="1708" height="24.65"/>
            </clipPath>
<clipPath id="terminal-1059733269-line-5">
    <rect x="0" y="123.5" width="1708" height="24.65"/>
            </clipPath>
<clipPath id="terminal-1059733269-line-6">
    <rect x="0" y="147.9" width="1708" height="24.65"/>
            </clipPath>
<clipPath id="terminal-1059733269-line-7">
    <rect x="0" y="172.3" width="1708" height="24.65"/>
            </clipPath>
<clipPath id="terminal-1059733269-line-8">
    <rect x="0" y="196.7" width="1708" height="24.65"/>
            </clipPath>
<clipPath id="terminal-1059733269-line-9">
    <rect x="0" y="221.1" width="1708" height="24.65"/>
            </clipPath>
<clipPath id="terminal-1059733269-line-10">
    <rect x="0" y="245.5" width="1708" height="24.65"/>
            </clipPath>
<clipPath id="terminal-1059733269-line-11">
    <rect x="0" y="269.9" width="1708" height="24.65"/>
            </clipPath>
<clipPath id="terminal-1059733269-line-12">
    <rect x="0" y="294.3" width="1708" height="24.65"/>
            </clipPath>
<clipPath id="terminal-1059733269-line-13">
    <rect x="0" y="318.7" width="1708" height="24.65"/>
            </clipPath>
<clipPath id="terminal-1059733269-line-14">
    <rect x="0" y="343.1" width="1708" height="24.65"/>
            </clipPath>
<clipPath id="terminal-1059733269-line-15">
    <rect x="0" y="367.5" width="1708" height="24.65"/>
            </clipPath>
<clipPath id="terminal-1059733269-line-16">
    <rect x="0" y="391.9" width="1708" height="24.65"/>
            </clipPath>
<clipPath id="terminal-1059733269-line-17">
    <rect x="0" y="416.3" width="1708" height="24.65"/>
            </clipPath>
<clipPath id="terminal-1059733269-line-18">
    <rect x="0" y="440.7" width="1708" height="24.65"/>
            </clipPath>
<clipPath id="terminal-1059733269-line-19">
    <rect x="0" y="465.1" width="1708" height="24.65"/>
            </clipPath>
<clipPath id="terminal-1059733269-line-20">
    <rect x="0" y="489.5" width="1708" height="24.65"/>
            </clipPath>
<clipPath id="terminal-1059733269-line-21">
    <rect x="0" y="513.9" width="1708" height="24.65"/>
            </clipPath>
<clipPath id="terminal-1059733269-line-22">
    <rect x="0" y="538.3" width="1708" height="24.65"/>
            </clipPath>
<clipPath id="terminal-1059733269-line-23">
    <rect x="0" y="562.7" width="1708" height="24.65"/>
            </clipPath>
<clipPath id="terminal-1059733269-line-24">
    <rect x="0" y="587.1" width="1708" height="24.65"/>
            </clipPath>
<clipPath id="terminal-1059733269-line-25">
    <rect x="0" y="611.5" width="1708" height="24.65"/>
            </clipPath>
<clipPath id="terminal-1059733269-line-26">
    <rect x="0" y="635.9" width="1708" height="24.65"/>
            </clipPath>
<clipPath id="terminal-1059733269-line-27">
    <rect x="0" y="660.3" width="1708" height="24.65"/>
            </clipPath>
<clipPath id="terminal-1059733269-line-28">
    <rect x="0" y="684.7" width="1708" height="24.65"/>
            </clipPath>
<clipPath id="terminal-1059733269-line-29">
    <rect x="0" y="709.1" width="1708" height="24.65"/>
            </clipPath>
<clipPath id="terminal-1059733269-line-30">
    <rect x="0" y="733.5" width="1708" height="24.65"/>
            </clipPath>
<clipPath id="terminal-1059733269-line-31">
    <rect x="0" y="757.9" width="1708" height="24.65"/>
            </clipPath>
<clipPath id="terminal-1059733269-line-32">
    <rect x="0" y="782.3" width="1708" height="24.65"/>
            </clipPath>
<clipPath id="terminal-1059733269-line-33">
    <rect x="0" y="806.7" width="1708" height="24.65"/>
            </clipPath>
<clipPath id="terminal-1059733269-line-34">
    <rect x="0" y="831.1" width="1708" height="24.65"/>
            </clipPath>
<clipPath id="terminal-1059733269-line-35">
    <rect x="0" y="855.5" width="1708" height="24.65"/>
            </clipPath>
<clipPath id="terminal-1059733269-line-36">
    <rect x="0" y="879.9" width="1708" height="24.65"/>
            </clipPath>
<clipPath id="terminal-1059733269-line-37">
    <rect x="0" y="904.3" width="1708" height="24.65"/>
            </clipPath>
<clipPath id="terminal-1059733269-line-38">
    <rect x="0" y="928.7" width="1708" height="24.65"/>
            </clipPath>
<clipPath id="terminal-1059733269-line-39">
    <rect x="0" y="953.1" width="1708" height="24.65"/>
            </clipPath>
<clipPath id="terminal-1059733269-line-40">
    <rect x="0" y="977.5" width="1708" height="24.65"/>
            </clipPath>
<clipPath id="terminal-1059733269-line-41">
    <rect x="0" y="1001.9" width="1708" height="24.65"/>
            </clipPath>
<clipPath id="terminal-1059733269-line-42">
    <rect x="0" y="1026.3" width="1708" height="24.65"/>
            </clipPath>
<clipPath id="terminal-1059733269-line-43">
    <rect x="0" y="1050.7" width="1708" height="24.65"/>
            </clipPath>
<clipPath id="terminal-1059733269-line-44">
    <rect x="0" y="1075.1" width="1708" height="24.65"/>
            </clipPath>
<clipPath id="terminal-1059733269-line-45">
    <rect x="0" y="1099.5" width="1708" height="24.65"/>
            </clipPath>
<clipPath id="terminal-1059733269-line-46">
    <rect x="0" y="1123.9" width="1708" height="24.65"/>
            </clipPath>
<clipPath id="terminal-1059733269-line-47">
    <rect x="0" y="1148.3" width="1708" height="24.65"/>
            </clipPath>
<clipPath id="terminal-1059733269-line-48">
    <rect x="0" y="1172.7" width="1708" height="24.65"/>
            </clipPath>
    </defs>

    <rect fill="#292929" stroke="rgba(255,255,255,0.35)" stroke-width="1" x="1" y="1" width="1724" height="1268" rx="8"/><text class="terminal-1059733269-title" fill="#c5c8c6" text-anchor="middle" x="862" y="27">htop-tycoon&#160;v3.0</text>
            <g transform="translate(26,22)">
            <circle cx="0" cy="0" r="7" fill="#ff5f57"/>
            <circle cx="22" cy="0" r="7" fill="#febc2e"/>
            <circle cx="44" cy="0" r="7" fill="#28c840"/>
            </g>
        
    <g transform="translate(9, 41)" clip-path="url(#terminal-1059733269-clip-terminal)">
    <rect fill="#0a0a0a" x="0" y="1.5" width="12.2" height="24.65" shape-rendering="crispEdges"/><rect fill="#0a0a0a" x="12.2" y="1.5" width="12.2" height="24.65" shape-rendering="crispEdges"/><rect fill="#0a0a0a" x="24.4" y="1.5" width="73.2" height="24.65" shape-rendering="crispEdges"/><rect fill="#0a0a0a" x="97.6" y="1.5" width="12.2" height="24.65" shape-rendering="crispEdges"/><rect fill="#0a0a0a" x="109.8" y="1.5" width="12.2" height="24.65" shape-rendering="crispEdges"/><rect fill="#0a0a0a" x="122" y="1.5" width="146.4" height="24.65" shape-rendering="crispEdges"/><rect fill="#0a0a0a" x="268.4" y="1.5" width="12.2" height="24.65" shape-rendering="crispEdges"/><rect fill="#0a0a0a" x="280.6" y="1.5" width="12.2" height="24.65" shape-rendering="crispEdges"/><rect fill="#0a0a0a" x="292.8" y="1.5" width="73.2" height="24.65" shape-rendering="crispEdges"/><rect fill="#0a0a0a" x="366" y="1.5" width="12.2" height="24.65" shape-rendering="crispEdges"/><rect fill="#0a0a0a" x="378.2" y="1.5" width="12.2" height="24.65" shape-rendering="crispEdges"/><rect fill="#0a0a0a" x="390.4" y="1.5" width="219.6" height="24.65" shape-rendering="crispEdges"/><rect fill="#0a0a0a" x="610" y="1.5" width="12.2" height="24.65" shape-rendering="crispEdges"/><rect fill="#0a0a0a" x="622.2" y="1.5" width="1073.6" height="24.65" shape-rendering="crispEdges"/><rect fill="#0a0a0a" x="1695.8" y="1.5" width="12.2" height="24.65" shape-rendering="crispEdges"/><rect fill="#0a0a0a" x="0" y="25.9" width="12.2" height="24.65" shape-rendering="crispEdges"/><rect fill="#0a0a0a" x="12.2" y="25.9" width="24.4" height="24.65" shape-rendering="crispEdges"/><rect fill="#18530c" x="36.6" y="25.9" width="256.2" height="24.65" shape-rendering="crispEdges"/><rect fill="#0a0a0a" x="292.8" y="25.9" width="1403" height="24.65" shape-rendering="crispEdges"/><rect fill="#0a0a0a" x="1695.8" y="25.9" width="12.2" height="24.65" shape-rendering="crispEdges"/><rect fill="#0a0a0a" x="0" y="50.3" width="12.2" height="24.65" shape-rendering="crispEdges"/><rect fill="#0a0a0a" x="12.2" y="50.3" width="48.8" height="24.65" shape-rendering="crispEdges"/><rect fill="#0a0a0a" x="61" y="50.3" width="24.4" height="24.65" shape-rendering="crispEdges"/><rect fill="#0a0a0a" x="85.4" y="50.3" width="85.4" height="24.65" shape-rendering="crispEdges"/><rect fill="#0a0a0a" x="170.8" y="50.3" width="1525" height="24.65" shape-rendering="crispEdges"/><rect fill="#0a0a0a" x="1695.8" y="50.3" width="12.2" height="24.65" shape-rendering="crispEdges"/><rect fill="#0a0a0a" x="0" y="74.7" width="12.2" height="24.65" shape-rendering="crispEdges"/><rect fill="#0a0a0a" x="12.2" y="74.7" width="48.8" height="24.65" shape-rendering="crispEdges"/><rect fill="#0a0a0a" x="61" y="74.7" width="48.8" height="24.65" shape-rendering="crispEdges"/><rect fill="#0a0a0a" x="109.8" y="74.7" width="390.4" height="24.65" shape-rendering="crispEdges"/><rect fill="#0a0a0a" x="500.2" y="74.7" width="1195.6" height="24.65" shape-rendering="crispEdges"/><rect fill="#0a0a0a" x="1695.8" y="74.7" width="12.2" height="24.65" shape-rendering="crispEdges"/><rect fill="#0a0a0a" x="0" y="99.1" width="12.2" height="24.65" shape-rendering="crispEdges"/><rect fill="#0a0a0a" x="12.2" y="99.1" width="48.8" height="24.65" shape-rendering="crispEdges"/><rect fill="#0a0a0a" x="61" y="99.1" width="48.8" height="24.65" shape-rendering="crispEdges"/><rect fill="#0a0a0a" x="109.8" y="99.1" width="414.8" height="24.65" shape-rendering="crispEdges"/><rect fill="#0a0a0a" x="524.6" y="99.1" width="1171.2" height="24.65" shape-rendering="crispEdges"/><rect fill="#0a0a0a" x="1695.8" y="99.1" width="12.2" height="24.65" shape-rendering="crispEdges"/><rect fill="#0a0a0a" x="0" y="123.5" width="12.2" height="24.65" shape-rendering="crispEdges"/><rect fill="#0a0a0a" x="12.2" y="123.5" width="48.8" height="24.65" shape-rendering="crispEdges"/><rect fill="#0a0a0a" x="61" y="123.5" width="24.4" height="24.65" shape-rendering="crispEdges"/><rect fill="#0a0a0a" x="85.4" y="123.5" width="85.4" height="24.65" shape-rendering="crispEdges"/><rect fill="#0a0a0a" x="170.8" y="123.5" width="1525" height="24.65" shape-rendering="crispEdges"/><rect fill="#0a0a0a" x="1695.8" y="123.5" width="12.2" height="24.65" shape-rendering="crispEdges"/><rect fill="#0a0a0a" x="0" y="147.9" width="12.2" height="24.65" shape-rendering="crispEdges"/><rect fill="#0a0a0a" x="12.2" y="147.9" width="48.8" height="24.65" shape-rendering="crispEdges"/><rect fill="#0a0a0a" x="61" y="147.9" width="48.8" height="24.65" shape-rendering="crispEdges"/><rect fill="#0a0a0a" x="109.8" y="147.9" width="463.6" height="24.65" shape-rendering="crispEdges"/><rect fill="#0a0a0a" x="573.4" y="147.9" width="1122.4" height="24.65" shape-rendering="crispEdges"/><rect fill="#0a0a0a" x="1695.8" y="147.9" width="12.2" height="24.65" shape-rendering="crispEdges"/><rect fill="#0a0a0a" x="0" y="172.3" width="12.2" height="24.65" shape-rendering="crispEdges"/><rect fill="#0a0a0a" x="12.2" y="172.3" width="48.8" height="24.65" shape-rendering="crispEdges"/><rect fill="#0a0a0a" x="61" y="172.3" width="24.4" height="24.65" shape-rendering="crispEdges"/><rect fill="#0a0a0a" x="85.4" y="172.3" width="109.8" height="24.65" shape-rendering="crispEdges"/><rect fill="#0a0a0a" x="195.2" y="172.3" width="1500.6" height="24.65" shape-rendering="crispEdges"/><rect fill="#0a0a0a" x="1695.8" y="172.3" width="12.2" height="24.65" shape-rendering="crispEdges"/><rect fill="#0a0a0a" x="0" y="196.7" width="12.2" height="24.65" shape-rendering="crispEdges"/><rect fill="#0a0a0a" x="12.2" y="196.7" width="48.8" height="24.65" shape-rendering="crispEdges"/><rect fill="#0a0a0a" x="61" y="196.7" width="48.8" height="24.65" shape-rendering="crispEdges"/><rect fill="#0a0a0a" x="109.8" y="196.7" width="524.6" height="24.65" shape-rendering="crispEdges"/><rect fill="#0a0a0a" x="634.4" y="196.7" width="1061.4" height="24.65" shape-rendering="crispEdges"/><rect fill="#0a0a0a" x="1695.8" y="196.7" width="12.2" height="24.65" shape-rendering="crispEdges"/><rect fill="#0a0a0a" x="0" y="221.1" width="12.2" height="24.65" shape-rendering="crispEdges"/><rect fill="#0a0a0a" x="12.2" y="221.1" width="48.8" height="24.65" shape-rendering="crispEdges"/><rect fill="#0a0a0a" x="61" y="221.1" width="24.4" height="24.65" shape-rendering="crispEdges"/><rect fill="#0a0a0a" x="85.4" y="221.1" width="73.2" height="24.65" shape-rendering="crispEdges"/><rect fill="#0a0a0a" x="158.6" y="221.1" width="1537.2" height="24.65" shape-rendering="crispEdges"/><rect fill="#0a0a0a" x="1695.8" y="221.1" width="12.2" height="24.65" shape-rendering="crispEdges"/><rect fill="#0a0a0a" x="0" y="245.5" width="12.2" height="24.65" shape-rendering="crispEdges"/><rect fill="#0a0a0a" x="12.2" y="245.5" width="48.8" height="24.65" shape-rendering="crispEdges"/><rect fill="#0a0a0a" x="61" y="245.5" width="48.8" height="24.65" shape-rendering="crispEdges"/><rect fill="#0a0a0a" x="109.8" y="245.5" width="414.8" height="24.65" shape-rendering="crispEdges"/><rect fill="#0a0a0a" x="524.6" y="245.5" width="1171.2" height="24.65" shape-rendering="crispEdges"/><rect fill="#0a0a0a" x="1695.8" y="245.5" width="12.2" height="24.65" shape-rendering="crispEdges"/><rect fill="#0a0a0a" x="0" y="269.9" width="12.2" height="24.65" shape-rendering="crispEdges"/><rect fill="#0a0a0a" x="12.2" y="269.9" width="48.8" height="24.65" shape-rendering="crispEdges"/><rect fill="#0a0a0a" x="61" y="269.9" width="48.8" height="24.65" shape-rendering="crispEdges"/><rect fill="#0a0a0a" x="109.8" y="269.9" width="390.4" height="24.65" shape-rendering="crispEdges"/><rect fill="#0a0a0a" x="500.2" y="269.9" width="1195.6" height="24.65" shape-rendering="crispEdges"/><rect fill="#0a0a0a" x="1695.8" y="269.9" width="12.2" height="24.65" shape-rendering="crispEdges"/><rect fill="#0a0a0a" x="0" y="294.3" width="12.2" height="24.65" shape-rendering="crispEdges"/><rect fill="#0a0a0a" x="12.2" y="294.3" width="1683.6" height="24.65" shape-rendering="crispEdges"/><rect fill="#0a0a0a" x="1695.8" y="294.3" width="12.2" height="24.65" shape-rendering="crispEdges"/><rect fill="#0a0a0a" x="0" y="318.7" width="12.2" height="24.65" shape-rendering="crispEdges"/><rect fill="#0a0a0a" x="12.2" y="318.7" width="1683.6" height="24.65" shape-rendering="crispEdges"/><rect fill="#0a0a0a" x="1695.8" y="318.7" width="12.2" height="24.65" shape-rendering="crispEdges"/><rect fill="#0a0a0a" x="0" y="343.1" width="12.2" height="24.65" shape-rendering="crispEdges"/><rect fill="#0a0a0a" x="12.2" y="343.1" width="1683.6" height="24.65" shape-rendering="crispEdges"/><rect fill="#0a0a0a" x="1695.8" y="343.1" width="12.2" height="24.65" shape-rendering="crispEdges"/><rect fill="#0a0a0a" x="0" y="367.5" width="12.2" height="24.65" shape-rendering="crispEdges"/><rect fill="#0a0a0a" x="12.2" y="367.5" width="1683.6" height="24.65" shape-rendering="crispEdges"/><rect fill="#0a0a0a" x="1695.8" y="367.5" width="12.2" height="24.65" shape-rendering="crispEdges"/><rect fill="#0a0a0a" x="0" y="391.9" width="12.2" height="24.65" shape-rendering="crispEdges"/><rect fill="#0a0a0a" x="12.2" y="391.9" width="1683.6" height="24.65" shape-rendering="crispEdges"/><rect fill="#0a0a0a" x="1695.8" y="391.9" width="12.2" height="24.65" shape-rendering="crispEdges"/><rect fill="#0a0a0a" x="0" y="416.3" width="12.2" height="24.65" shape-rendering="crispEdges"/><rect fill="#0a0a0a" x="12.2" y="416.3" width="1683.6" height="24.65" shape-rendering="crispEdges"/><rect fill="#0a0a0a" x="1695.8" y="416.3" width="12.2" height="24.65" shape-rendering="crispEdges"/><rect fill="#0a0a0a" x="0" y="440.7" width="12.2" height="24.65" shape-rendering="crispEdges"/><rect fill="#0a0a0a" x="12.2" y="440.7" width="1683.6" height="24.65" shape-rendering="crispEdges"/><rect fill="#0a0a0a" x="1695.8" y="440.7" width="12.2" height="24.65" shape-rendering="crispEdges"/><rect fill="#0a0a0a" x="0" y="465.1" width="12.2" height="24.65" shape-rendering="crispEdges"/><rect fill="#0a0a0a" x="12.2" y="465.1" width="1683.6" height="24.65" shape-rendering="crispEdges"/><rect fill="#0a0a0a" x="1695.8" y="465.1" width="12.2" height="24.65" shape-rendering="crispEdges"/><rect fill="#0a0a0a" x="0" y="489.5" width="12.2" height="24.65" shape-rendering="crispEdges"/><rect fill="#0a0a0a" x="12.2" y="489.5" width="1683.6" height="24.65" shape-rendering="crispEdges"/><rect fill="#0a0a0a" x="1695.8" y="489.5" width="12.2" height="24.65" shape-rendering="crispEdges"/><rect fill="#0a0a0a" x="0" y="513.9" width="12.2" height="24.65" shape-rendering="crispEdges"/><rect fill="#0a0a0a" x="12.2" y="513.9" width="1683.6" height="24.65" shape-rendering="crispEdges"/><rect fill="#0a0a0a" x="1695.8" y="513.9" width="12.2" height="24.65" shape-rendering="crispEdges"/><rect fill="#0a0a0a" x="0" y="538.3" width="12.2" height="24.65" shape-rendering="crispEdges"/><rect fill="#0a0a0a" x="12.2" y="538.3" width="1683.6" height="24.65" shape-rendering="crispEdges"/><rect fill="#0a0a0a" x="1695.8" y="538.3" width="12.2" height="24.65" shape-rendering="crispEdges"/><rect fill="#0a0a0a" x="0" y="562.7" width="12.2" height="24.65" shape-rendering="crispEdges"/><rect fill="#0a0a0a" x="12.2" y="562.7" width="1683.6" height="24.65" shape-rendering="crispEdges"/><rect fill="#0a0a0a" x="1695.8" y="562.7" width="12.2" height="24.65" shape-rendering="crispEdges"/><rect fill="#0a0a0a" x="0" y="587.1" width="12.2" height="24.65" shape-rendering="crispEdges"/><rect fill="#0a0a0a" x="12.2" y="587.1" width="1683.6" height="24.65" shape-rendering="crispEdges"/><rect fill="#0a0a0a" x="1695.8" y="587.1" width="12.2" height="24.65" shape-rendering="crispEdges"/><rect fill="#0a0a0a" x="0" y="611.5" width="12.2" height="24.65" shape-rendering="crispEdges"/><rect fill="#0a0a0a" x="12.2" y="611.5" width="1683.6" height="24.65" shape-rendering="crispEdges"/><rect fill="#0a0a0a" x="1695.8" y="611.5" width="12.2" height="24.65" shape-rendering="crispEdges"/><rect fill="#0a0a0a" x="0" y="635.9" width="12.2" height="24.65" shape-rendering="crispEdges"/><rect fill="#0a0a0a" x="12.2" y="635.9" width="1683.6" height="24.65" shape-rendering="crispEdges"/><rect fill="#0a0a0a" x="1695.8" y="635.9" width="12.2" height="24.65" shape-rendering="crispEdges"/><rect fill="#0a0a0a" x="0" y="660.3" width="12.2" height="24.65" shape-rendering="crispEdges"/><rect fill="#0a0a0a" x="12.2" y="660.3" width="1683.6" height="24.65" shape-rendering="crispEdges"/><rect fill="#0a0a0a" x="1695.8" y="660.3" width="12.2" height="24.65" shape-rendering="crispEdges"/><rect fill="#0a0a0a" x="0" y="684.7" width="12.2" height="24.65" shape-rendering="crispEdges"/><rect fill="#0a0a0a" x="12.2" y="684.7" width="1683.6" height="24.65" shape-rendering="crispEdges"/><rect fill="#0a0a0a" x="1695.8" y="684.7" width="12.2" height="24.65" shape-rendering="crispEdges"/><rect fill="#0a0a0a" x="0" y="709.1" width="12.2" height="24.65" shape-rendering="crispEdges"/><rect fill="#0a0a0a" x="12.2" y="709.1" width="1683.6" height="24.65" shape-rendering="crispEdges"/><rect fill="#0a0a0a" x="1695.8" y="709.1" width="12.2" height="24.65" shape-rendering="crispEdges"/><rect fill="#0a0a0a" x="0" y="733.5" width="12.2" height="24.65" shape-rendering="crispEdges"/><rect fill="#0a0a0a" x="12.2" y="733.5" width="1683.6" height="24.65" shape-rendering="crispEdges"/><rect fill="#0a0a0a" x="1695.8" y="733.5" width="12.2" height="24.65" shape-rendering="crispEdges"/><rect fill="#0a0a0a" x="0" y="757.9" width="12.2" height="24.65" shape-rendering="crispEdges"/><rect fill="#0a0a0a" x="12.2" y="757.9" width="1683.6" height="24.65" shape-rendering="crispEdges"/><rect fill="#0a0a0a" x="1695.8" y="757.9" width="12.2" height="24.65" shape-rendering="crispEdges"/><rect fill="#0a0a0a" x="0" y="782.3" width="12.2" height="24.65" shape-rendering="crispEdges"/><rect fill="#0a0a0a" x="12.2" y="782.3" width="1683.6" height="24.65" shape-rendering="crispEdges"/><rect fill="#0a0a0a" x="1695.8" y="782.3" width="12.2" height="24.65" shape-rendering="crispEdges"/><rect fill="#0a0a0a" x="0" y="806.7" width="12.2" height="24.65" shape-rendering="crispEdges"/><rect fill="#0a0a0a" x="12.2" y="806.7" width="1683.6" height="24.65" shape-rendering="crispEdges"/><rect fill="#0a0a0a" x="1695.8" y="806.7" width="12.2" height="24.65" shape-rendering="crispEdges"/><rect fill="#0a0a0a" x="0" y="831.1" width="12.2" height="24.65" shape-rendering="crispEdges"/><rect fill="#0a0a0a" x="12.2" y="831.1" width="1683.6" height="24.65" shape-rendering="crispEdges"/><rect fill="#0a0a0a" x="1695.8" y="831.1" width="12.2" height="24.65" shape-rendering="crispEdges"/><rect fill="#0a0a0a" x="0" y="855.5" width="12.2" height="24.65" shape-rendering="crispEdges"/><rect fill="#0a0a0a" x="12.2" y="855.5" width="1683.6" height="24.65" shape-rendering="crispEdges"/><rect fill="#0a0a0a" x="1695.8" y="855.5" width="12.2" height="24.65" shape-rendering="crispEdges"/><rect fill="#0a0a0a" x="0" y="879.9" width="12.2" height="24.65" shape-rendering="crispEdges"/><rect fill="#0a0a0a" x="12.2" y="879.9" width="1683.6" height="24.65" shape-rendering="crispEdges"/><rect fill="#0a0a0a" x="1695.8" y="879.9" width="12.2" height="24.65" shape-rendering="crispEdges"/><rect fill="#0a0a0a" x="0" y="904.3" width="12.2" height="24.65" shape-rendering="crispEdges"/><rect fill="#0a0a0a" x="12.2" y="904.3" width="1683.6" height="24.65" shape-rendering="crispEdges"/><rect fill="#0a0a0a" x="1695.8" y="904.3" width="12.2" height="24.65" shape-rendering="crispEdges"/><rect fill="#0a0a0a" x="0" y="928.7" width="12.2" height="24.65" shape-rendering="crispEdges"/><rect fill="#0a0a0a" x="12.2" y="928.7" width="1683.6" height="24.65" shape-rendering="crispEdges"/><rect fill="#0a0a0a" x="1695.8" y="928.7" width="12.2" height="24.65" shape-rendering="crispEdges"/><rect fill="#0a0a0a" x="0" y="953.1" width="12.2" height="24.65" shape-rendering="crispEdges"/><rect fill="#0a0a0a" x="12.2" y="953.1" width="1683.6" height="24.65" shape-rendering="crispEdges"/><rect fill="#0a0a0a" x="1695.8" y="953.1" width="12.2" height="24.65" shape-rendering="crispEdges"/><rect fill="#0a0a0a" x="0" y="977.5" width="12.2" height="24.65" shape-rendering="crispEdges"/><rect fill="#0a0a0a" x="12.2" y="977.5" width="1683.6" height="24.65" shape-rendering="crispEdges"/><rect fill="#0a0a0a" x="1695.8" y="977.5" width="12.2" height="24.65" shape-rendering="crispEdges"/><rect fill="#0a0a0a" x="0" y="1001.9" width="12.2" height="24.65" shape-rendering="crispEdges"/><rect fill="#0a0a0a" x="12.2" y="1001.9" width="1683.6" height="24.65" shape-rendering="crispEdges"/><rect fill="#0a0a0a" x="1695.8" y="1001.9" width="12.2" height="24.65" shape-rendering="crispEdges"/><rect fill="#0a0a0a" x="0" y="1026.3" width="12.2" height="24.65" shape-rendering="crispEdges"/><rect fill="#0a0a0a" x="12.2" y="1026.3" width="1683.6" height="24.65" shape-rendering="crispEdges"/><rect fill="#0a0a0a" x="1695.8" y="1026.3" width="12.2" height="24.65" shape-rendering="crispEdges"/><rect fill="#0a0a0a" x="0" y="1050.7" width="12.2" height="24.65" shape-rendering="crispEdges"/><rect fill="#0a0a0a" x="12.2" y="1050.7" width="1683.6" height="24.65" shape-rendering="crispEdges"/><rect fill="#0a0a0a" x="1695.8" y="1050.7" width="12.2" height="24.65" shape-rendering="crispEdges"/><rect fill="#0a0a0a" x="0" y="1075.1" width="12.2" height="24.65" shape-rendering="crispEdges"/><rect fill="#0a0a0a" x="12.2" y="1075.1" width="280.6" height="24.65" shape-rendering="crispEdges"/><rect fill="#0a0a0a" x="292.8" y="1075.1" width="1403" height="24.65" shape-rendering="crispEdges"/><rect fill="#0a0a0a" x="1695.8" y="1075.1" width="12.2" height="24.65" shape-rendering="crispEdges"/><rect fill="#0a0a0a" x="0" y="1099.5" width="12.2" height="24.65" shape-rendering="crispEdges"/><rect fill="#0a0a0a" x="12.2" y="1099.5" width="280.6" height="24.65" shape-rendering="crispEdges"/><rect fill="#0a0a0a" x="292.8" y="1099.5" width="1403" height="24.65" shape-rendering="crispEdges"/><rect fill="#0a0a0a" x="1695.8" y="1099.5" width="12.2" height="24.65" shape-rendering="crispEdges"/><rect fill="#0a0a0a" x="0" y="1123.9" width="12.2" height="24.65" shape-rendering="crispEdges"/><rect fill="#0a0a0a" x="12.2" y="1123.9" width="280.6" height="24.65" shape-rendering="crispEdges"/><rect fill="#0a0a0a" x="292.8" y="1123.9" width="1403" height="24.65" shape-rendering="crispEdges"/><rect fill="#0a0a0a" x="1695.8" y="1123.9" width="12.2" height="24.65" shape-rendering="crispEdges"/><rect fill="#0a0a0a" x="0" y="1148.3" width="12.2" height="24.65" shape-rendering="crispEdges"/><rect fill="#0a0a0a" x="12.2" y="1148.3" width="280.6" height="24.65" shape-rendering="crispEdges"/><rect fill="#0a0a0a" x="292.8" y="1148.3" width="1403" height="24.65" shape-rendering="crispEdges"/><rect fill="#0a0a0a" x="1695.8" y="1148.3" width="12.2" height="24.65" shape-rendering="crispEdges"/><rect fill="#0a0a0a" x="0" y="1172.7" width="280.6" height="24.65" shape-rendering="crispEdges"/><rect fill="#0a0a0a" x="280.6" y="1172.7" width="1427.4" height="24.65" shape-rendering="crispEdges"/><rect fill="#0a0a0a" x="0" y="1197.1" width="12.2" height="24.65" shape-rendering="crispEdges"/><rect fill="#0a0a0a" x="12.2" y="1197.1" width="12.2" height="24.65" shape-rendering="crispEdges"/><rect fill="#0a0a0a" x="24.4" y="1197.1" width="500.2" height="24.65" shape-rendering="crispEdges"/><rect fill="#0a0a0a" x="524.6" y="1197.1" width="12.2" height="24.65" shape-rendering="crispEdges"/><rect fill="#0a0a0a" x="536.8" y="1197.1" width="12.2" height="24.65" shape-rendering="crispEdges"/><rect fill="#0a0a0a" x="549" y="1197.1" width="305" height="24.65" shape-rendering="crispEdges"/><rect fill="#0a0a0a" x="854" y="1197.1" width="12.2" height="24.65" shape-rendering="crispEdges"/><rect fill="#0a0a0a" x="866.2" y="1197.1" width="12.2" height="24.65" shape-rendering="crispEdges"/><rect fill="#0a0a0a" x="878.4" y="1197.1" width="97.6" height="24.65" shape-rendering="crispEdges"/><rect fill="#0a0a0a" x="976" y="1197.1" width="12.2" height="24.65" shape-rendering="crispEdges"/><rect fill="#0a0a0a" x="988.2" y="1197.1" width="12.2" height="24.65" shape-rendering="crispEdges"/><rect fill="#0a0a0a" x="1000.4" y="1197.1" width="97.6" height="24.65" shape-rendering="crispEdges"/><rect fill="#0a0a0a" x="1098" y="1197.1" width="12.2" height="24.65" shape-rendering="crispEdges"/><rect fill="#0a0a0a" x="1110.2" y="1197.1" width="585.6" height="24.65" shape-rendering="crispEdges"/><rect fill="#0a0a0a" x="1695.8" y="1197.1" width="12.2" height="24.65" shape-rendering="crispEdges"/>
    <g class="terminal-1059733269-matrix">
    <text class="terminal-1059733269-r2" x="24.4" y="20" textLength="73.2" clip-path="url(#terminal-1059733269-line-0)">Year&#160;1</text><text class="terminal-1059733269-r2" x="122" y="20" textLength="146.4" clip-path="url(#terminal-1059733269-line-0)">Cash&#160;$97,636</text><text class="terminal-1059733269-r2" x="292.8" y="20" textLength="73.2" clip-path="url(#terminal-1059733269-line-0)">Fans&#160;0</text><text class="terminal-1059733269-r2" x="390.4" y="20" textLength="219.6" clip-path="url(#terminal-1059733269-line-0)">Strategy:&#160;Balanced</text><text class="terminal-1059733269-r1" x="1708" y="20" textLength="12.2" clip-path="url(#terminal-1059733269-line-0)">
</text><text class="terminal-1059733269-r2" x="12.2" y="44.4" textLength="24.4" clip-path="url(#terminal-1059733269-line-1)">▼&#160;</text><text class="terminal-1059733269-r2" x="36.6" y="44.4" textLength="256.2" clip-path="url(#terminal-1059733269-line-1)">Company&#160;(6&#160;employees)</text><text class="terminal-1059733269-r1" x="1708" y="44.4" textLength="12.2" clip-path="url(#terminal-1059733269-line-1)">
</text><text class="terminal-1059733269-r3" x="12.2" y="68.8" textLength="48.8" clip-path="url(#terminal-1059733269-line-2)">├──&#160;</text><text class="terminal-1059733269-r2" x="61" y="68.8" textLength="24.4" clip-path="url(#terminal-1059733269-line-2)">▼&#160;</text><text class="terminal-1059733269-r2" x="85.4" y="68.8" textLength="85.4" clip-path="url(#terminal-1059733269-line-2)">DEV&#160;(2)</text><text class="terminal-1059733269-r1" x="1708" y="68.8" textLength="12.2" clip-path="url(#terminal-1059733269-line-2)">
</text><text class="terminal-1059733269-r3" x="12.2" y="93.2" textLength="48.8" clip-path="url(#terminal-1059733269-line-3)">│&#160;&#160;&#160;</text><text class="terminal-1059733269-r3" x="61" y="93.2" textLength="48.8" clip-path="url(#terminal-1059733269-line-3)">├──&#160;</text><text class="terminal-1059733269-r2" x="109.8" y="93.2" textLength="390.4" clip-path="url(#terminal-1059733269-line-3)">Ada&#160;|&#160;LEAD&#160;5&#160;|&#160;sat:85%&#160;|&#160;$880/mo</text><text class="terminal-1059733269-r1" x="1708" y="93.2" textLength="12.2" clip-path="url(#terminal-1059733269-line-3)">
</text><text class="terminal-1059733269-r3" x="12.2" y="117.6" textLength="48.8" clip-path="url(#terminal-1059733269-line-4)">│&#160;&#160;&#160;</text><text class="terminal-1059733269-r3" x="61" y="117.6" textLength="48.8" clip-path="url(#terminal-1059733269-line-4)">└──&#160;</text><text class="terminal-1059733269-r2" x="109.8" y="117.6" textLength="414.8" clip-path="url(#terminal-1059733269-line-4)">Bob&#160;|&#160;JUNIOR&#160;2&#160;|&#160;sat:70%&#160;|&#160;$230/mo</text><text class="terminal-1059733269-r1" x="1708" y="117.6" textLength="12.2" clip-path="url(#terminal-1059733269-line-4)">
</text><text class="terminal-1059733269-r3" x="12.2" y="142" textLength="48.8" clip-path="url(#terminal-1059733269-line-5)">├──&#160;</text><text class="terminal-1059733269-r2" x="61" y="142" textLength="24.4" clip-path="url(#terminal-1059733269-line-5)">▼&#160;</text><text class="terminal-1059733269-r2" x="85.4" y="142" textLength="85.4" clip-path="url(#terminal-1059733269-line-5)">ART&#160;(1)</text><text class="terminal-1059733269-r1" x="1708" y="142" textLength="12.2" clip-path="url(#terminal-1059733269-line-5)">
</text><text class="terminal-1059733269-r3" x="12.2" y="166.4" textLength="48.8" clip-path="url(#terminal-1059733269-line-6)">│&#160;&#160;&#160;</text><text class="terminal-1059733269-r3" x="61" y="166.4" textLength="48.8" clip-path="url(#terminal-1059733269-line-6)">└──&#160;</text><text class="terminal-1059733269-r2" x="109.8" y="166.4" textLength="463.6" clip-path="url(#terminal-1059733269-line-6)">Carol&#160;|&#160;DESIGNER&#160;4&#160;|&#160;sat:74%&#160;|&#160;$435/mo</text><text class="terminal-1059733269-r1" x="1708" y="166.4" textLength="12.2" clip-path="url(#terminal-1059733269-line-6)">
</text><text class="terminal-1059733269-r3" x="12.2" y="190.8" textLength="48.8" clip-path="url(#terminal-1059733269-line-7)">├──&#160;</text><text class="terminal-1059733269-r2" x="61" y="190.8" textLength="24.4" clip-path="url(#terminal-1059733269-line-7)">▼&#160;</text><text class="terminal-1059733269-r2" x="85.4" y="190.8" textLength="109.8" clip-path="url(#terminal-1059733269-line-7)">SOUND&#160;(1)</text><text class="terminal-1059733269-r1" x="1708" y="190.8" textLength="12.2" clip-path="url(#terminal-1059733269-line-7)">
</text><text class="terminal-1059733269-r3" x="12.2" y="215.2" textLength="48.8" clip-path="url(#terminal-1059733269-line-8)">│&#160;&#160;&#160;</text><text class="terminal-1059733269-r3" x="61" y="215.2" textLength="48.8" clip-path="url(#terminal-1059733269-line-8)">└──&#160;</text><text class="terminal-1059733269-r2" x="109.8" y="215.2" textLength="524.6" clip-path="url(#terminal-1059733269-line-8)">Dave&#160;|&#160;SOUND_ENGINEER&#160;3&#160;|&#160;sat:80%&#160;|&#160;$351/mo</text><text class="terminal-1059733269-r1" x="1708" y="215.2" textLength="12.2" clip-path="url(#terminal-1059733269-line-8)">
</text><text class="terminal-1059733269-r3" x="12.2" y="239.6" textLength="48.8" clip-path="url(#terminal-1059733269-line-9)">└──&#160;</text><text class="terminal-1059733269-r2" x="61" y="239.6" textLength="24.4" clip-path="url(#terminal-1059733269-line-9)">▼&#160;</text><text class="terminal-1059733269-r2" x="85.4" y="239.6" textLength="73.2" clip-path="url(#terminal-1059733269-line-9)">QA&#160;(2)</text><text class="terminal-1059733269-r1" x="1708" y="239.6" textLength="12.2" clip-path="url(#terminal-1059733269-line-9)">
</text><text class="terminal-1059733269-r3" x="61" y="264" textLength="48.8" clip-path="url(#terminal-1059733269-line-10)">├──&#160;</text><text class="terminal-1059733269-r2" x="109.8" y="264" textLength="414.8" clip-path="url(#terminal-1059733269-line-10)">Eve&#160;|&#160;QA&#160;2&#160;|&#160;sat:16%&#160;|&#160;$207/mo&#160;[Z]</text><text class="terminal-1059733269-r1" x="1708" y="264" textLength="12.2" clip-path="url(#terminal-1059733269-line-10)">
</text><text class="terminal-1059733269-r3" x="61" y="288.4" textLength="48.8" clip-path="url(#terminal-1059733269-line-11)">└──&#160;</text><text class="terminal-1059733269-r2" x="109.8" y="288.4" textLength="390.4" clip-path="url(#terminal-1059733269-line-11)">Frank&#160;|&#160;QA&#160;4&#160;|&#160;sat:70%&#160;|&#160;$261/mo</text><text class="terminal-1059733269-r1" x="1708" y="288.4" textLength="12.2" clip-path="url(#terminal-1059733269-line-11)">
</text><text class="terminal-1059733269-r1" x="1708" y="312.8" textLength="12.2" clip-path="url(#terminal-1059733269-line-12)">
</text><text class="terminal-1059733269-r1" x="1708" y="337.2" textLength="12.2" clip-path="url(#terminal-1059733269-line-13)">
</text><text class="terminal-1059733269-r1" x="1708" y="361.6" textLength="12.2" clip-path="url(#terminal-1059733269-line-14)">
</text><text class="terminal-1059733269-r1" x="1708" y="386" textLength="12.2" clip-path="url(#terminal-1059733269-line-15)">
</text><text class="terminal-1059733269-r1" x="1708" y="410.4" textLength="12.2" clip-path="url(#terminal-1059733269-line-16)">
</text><text class="terminal-1059733269-r1" x="1708" y="434.8" textLength="12.2" clip-path="url(#terminal-1059733269-line-17)">
</text><text class="terminal-1059733269-r1" x="1708" y="459.2" textLength="12.2" clip-path="url(#terminal-1059733269-line-18)">
</text><text class="terminal-1059733269-r1" x="1708" y="483.6" textLength="12.2" clip-path="url(#terminal-1059733269-line-19)">
</text><text class="terminal-1059733269-r1" x="1708" y="508" textLength="12.2" clip-path="url(#terminal-1059733269-line-20)">
</text><text class="terminal-1059733269-r1" x="1708" y="532.4" textLength="12.2" clip-path="url(#terminal-1059733269-line-21)">
</text><text class="terminal-1059733269-r1" x="1708" y="556.8" textLength="12.2" clip-path="url(#terminal-1059733269-line-22)">
</text><text class="terminal-1059733269-r1" x="1708" y="581.2" textLength="12.2" clip-path="url(#terminal-1059733269-line-23)">
</text><text class="terminal-1059733269-r1" x="1708" y="605.6" textLength="12.2" clip-path="url(#terminal-1059733269-line-24)">
</text><text class="terminal-1059733269-r1" x="1708" y="630" textLength="12.2" clip-path="url(#terminal-1059733269-line-25)">
</text><text class="terminal-1059733269-r1" x="1708" y="654.4" textLength="12.2" clip-path="url(#terminal-1059733269-line-26)">
</text><text class="terminal-1059733269-r1" x="1708" y="678.8" textLength="12.2" clip-path="url(#terminal-1059733269-line-27)">
</text><text class="terminal-1059733269-r1" x="1708" y="703.2" textLength="12.2" clip-path="url(#terminal-1059733269-line-28)">
</text><text class="terminal-1059733269-r1" x="1708" y="727.6" textLength="12.2" clip-path="url(#terminal-1059733269-line-29)">
</text><text class="terminal-1059733269-r1" x="1708" y="752" textLength="12.2" clip-path="url(#terminal-1059733269-line-30)">
</text><text class="terminal-1059733269-r1" x="1708" y="776.4" textLength="12.2" clip-path="url(#terminal-1059733269-line-31)">
</text><text class="terminal-1059733269-r1" x="1708" y="800.8" textLength="12.2" clip-path="url(#terminal-1059733269-line-32)">
</text><text class="terminal-1059733269-r1" x="1708" y="825.2" textLength="12.2" clip-path="url(#terminal-1059733269-line-33)">
</text><text class="terminal-1059733269-r1" x="1708" y="849.6" textLength="12.2" clip-path="url(#terminal-1059733269-line-34)">
</text><text class="terminal-1059733269-r1" x="1708" y="874" textLength="12.2" clip-path="url(#terminal-1059733269-line-35)">
</text><text class="terminal-1059733269-r1" x="1708" y="898.4" textLength="12.2" clip-path="url(#terminal-1059733269-line-36)">
</text><text class="terminal-1059733269-r1" x="1708" y="922.8" textLength="12.2" clip-path="url(#terminal-1059733269-line-37)">
</text><text class="terminal-1059733269-r1" x="1708" y="947.2" textLength="12.2" clip-path="url(#terminal-1059733269-line-38)">
</text><text class="terminal-1059733269-r1" x="1708" y="971.6" textLength="12.2" clip-path="url(#terminal-1059733269-line-39)">
</text><text class="terminal-1059733269-r1" x="1708" y="996" textLength="12.2" clip-path="url(#terminal-1059733269-line-40)">
</text><text class="terminal-1059733269-r1" x="1708" y="1020.4" textLength="12.2" clip-path="url(#terminal-1059733269-line-41)">
</text><text class="terminal-1059733269-r1" x="1708" y="1044.8" textLength="12.2" clip-path="url(#terminal-1059733269-line-42)">
</text><text class="terminal-1059733269-r1" x="1708" y="1069.2" textLength="12.2" clip-path="url(#terminal-1059733269-line-43)">
</text><text class="terminal-1059733269-r2" x="12.2" y="1093.6" textLength="280.6" clip-path="url(#terminal-1059733269-line-44)">FUN&#160;&#160;&#160;&#160;&#160;&#160;██████░░░░&#160;&#160;60</text><text class="terminal-1059733269-r1" x="1708" y="1093.6" textLength="12.2" clip-path="url(#terminal-1059733269-line-44)">
</text><text class="terminal-1059733269-r2" x="12.2" y="1118" textLength="280.6" clip-path="url(#terminal-1059733269-line-45)">GRAPHICS&#160;████░░░░░░&#160;&#160;40</text><text class="terminal-1059733269-r1" x="1708" y="1118" textLength="12.2" clip-path="url(#terminal-1059733269-line-45)">
</text><text class="terminal-1059733269-r2" x="12.2" y="1142.4" textLength="280.6" clip-path="url(#terminal-1059733269-line-46)">SOUND&#160;&#160;&#160;&#160;███░░░░░░░&#160;&#160;30</text><text class="terminal-1059733269-r1" x="1708" y="1142.4" textLength="12.2" clip-path="url(#terminal-1059733269-line-46)">
</text><text class="terminal-1059733269-r2" x="12.2" y="1166.8" textLength="280.6" clip-path="url(#terminal-1059733269-line-47)">ORIGINAL&#160;█████░░░░░&#160;&#160;50</text><text class="terminal-1059733269-r1" x="1708" y="1166.8" textLength="12.2" clip-path="url(#terminal-1059733269-line-47)">
</text><text class="terminal-1059733269-r2" x="0" y="1191.2" textLength="280.6" clip-path="url(#terminal-1059733269-line-48)">Legacy&#160;(no&#160;endings&#160;yet)</text><text class="terminal-1059733269-r1" x="1708" y="1191.2" textLength="12.2" clip-path="url(#terminal-1059733269-line-48)">
</text><text class="terminal-1059733269-r2" x="24.4" y="1215.6" textLength="353.8" clip-path="url(#terminal-1059733269-line-49)">F1도움&#160;F2저장&#160;F3검색&#160;F5트리&#160;F7승진&#160;F9해고</text><text class="terminal-1059733269-r2" x="549" y="1215.6" textLength="195.2" clip-path="url(#terminal-1059733269-line-49)">H고용&#160;n새게임&#160;s전략&#160;d자동</text><text class="terminal-1059733269-r2" x="878.4" y="1215.6" textLength="97.6" clip-path="url(#terminal-1059733269-line-49)">Speed&#160;1x</text><text class="terminal-1059733269-r2" x="1000.4" y="1215.6" textLength="97.6" clip-path="url(#terminal-1059733269-line-49)">Auto&#160;OFF</text>
    </g>
    </g>
</svg>
